<?xml version="1.0" encoding="UTF-8"?>
<svg id="Capa_2" xmlns="http://www.w3.org/2000/svg" viewBox="0 0 1080 1080">
  <defs>
    <style>
      .cls-1 {
        fill: #801c14;
      }

      .cls-2 {
        fill: #f19389;
      }

      .cls-3 {
        fill: #420c09;
      }

      .cls-4 {
        fill: #e64433;
      }
    </style>
  </defs>
  <path class="cls-3" d="M521.68,698.92l-33.74-68.26-39.57-79.94.04-.02-18.57-37.56c-6.69-8.49-6.07-20.93,1.45-28.64l90.43-120.63c3.38-3.47,8.25-5.45,13.32-5.97l-18.38-24.65c-1.23-1.65-3.12-2.62-5.12-2.62h-85.87c-10.58,0-20.25,6.26-24.97,16.17l-67.16,135.63c-4.88,10.24-3.57,22.52,3.33,31.39l178.89,224.8c7.6,9.77,19.74,12.88,30.23,9.34l-24.21-48.91s-.08-.09-.11-.14Z"/>
  <path class="cls-2" d="M692.33,373.8l-14.11-27.01c-4.71-9.91-14.39-16.17-24.97-16.17h-120.25l40.81,54.74,5.11,6.83c3.04,4.07,7.71,6.44,12.65,6.44h86.68c12.19,0,19.94-13.65,14.09-24.83Z"/>
  <path class="cls-1" d="M746.45,481.34h0c-5.38-10.31-15.72-16.72-26.95-16.72h-135.85c-.71,0-1.42.03-2.12.08l-28.85,66.83c.7.05,1.41.08,2.12.08h65.79c8.05,0,13.25,8.92,9.56,16.4l-74.47,150.9c-3.94,5.06-9.69,7.63-15.49,7.76l15.52,31.35c1.06,2.14,3.9,2.51,5.36.64.01-.01.02-.03.03-.04l166.8-207,15.22-18.89c6.9-8.87,8.21-21.15,3.33-31.39Z"/>
  <path class="cls-4" d="M550.63,531.62v-.08c-.05,0-.11,0-.16-.01l.16.1Z"/>
  <path class="cls-4" d="M579.48,464.67l-.08.05s.05,0,.08,0v-.04Z"/>
  <path class="cls-3" d="M569.23,464.7l-28.85,66.83c-.05,0-.11-.01-.16-.01l-23.32-13.86-14.32-8.51c-8.16-4.86-8.16-17.16,0-22.02l66.58-22.42s.05-.01.08-.01Z"/>
</svg>