<svg preserveAspectRatio="none" width="100%" height="100%" overflow="visible" style="display: block;" viewBox="0 0 24 23.9067" fill="none" xmlns="http://www.w3.org/2000/svg">
<g id="Location">
<path id="location" d="M1.18305 9.44526C-0.662029 10.2894 -0.276131 12.8701 1.83425 12.8822L10.8064 12.9183C10.9873 12.9183 11.0476 12.9907 11.0476 13.1716L11.0717 22.0834C11.0717 24.1576 13.6644 24.6279 14.581 22.6261L23.7099 2.87292C24.6867 0.762543 23.0466 -0.636338 21.0327 0.292229L1.18305 9.44526ZM4.05317 10.7115C3.95669 10.7115 3.92051 10.603 4.02905 10.5427L21.0327 2.76439C21.1774 2.70409 21.2618 2.78851 21.1895 2.93322L13.3991 19.8886C13.3509 20.0092 13.2303 19.9851 13.2303 19.8766L13.2785 11.7606C13.2785 11.025 12.9288 10.6632 12.1691 10.6632L4.05317 10.7115Z" fill="var(--fill-0, #8B0000)"/>
</g>
</svg>
