<svg preserveAspectRatio="none" width="100%" height="100%" overflow="visible" style="display: block;" viewBox="0 0 40 40" fill="none" xmlns="http://www.w3.org/2000/svg">
<g id="clock">
<path id="clock_2" d="M19.9874 32.4888C27.1066 32.4888 32.9827 26.6127 32.9827 19.5061C32.9827 12.3996 27.094 6.52344 19.9749 6.52344C12.8683 6.52344 7.00474 12.3996 7.00474 19.5061C7.00474 26.6127 12.8809 32.4888 19.9874 32.4888ZM19.9874 29.9023C14.2243 29.9023 9.61635 25.2693 9.61635 19.5061C9.61635 13.743 14.2243 9.12249 19.9749 9.12249C25.738 9.12249 30.3711 13.743 30.3837 19.5061C30.3962 25.2693 25.7506 29.9023 19.9874 29.9023ZM13.6593 21.0882H19.9749C20.5525 21.0882 20.9919 20.6487 20.9919 20.0837V11.8722C20.9919 11.3072 20.5525 10.8677 19.9749 10.8677C19.4224 10.8677 18.983 11.3072 18.983 11.8722V19.0792H13.6593C13.0943 19.0792 12.6549 19.5187 12.6549 20.0837C12.6549 20.6487 13.0943 21.0882 13.6593 21.0882Z" fill="var(--fill-0, #8B0000)"/>
</g>
</svg>
